<?xml version="1.0" encoding="UTF-8"?><!DOCTYPE svg PUBLIC "-//W3C//DTD SVG 1.1//EN" "http://www.w3.org/Graphics/SVG/1.1/DTD/svg11.dtd"><svg xmlns="http://www.w3.org/2000/svg"><defs><style>.cls-1{fill:#010101}</style><style>.cls-1{fill:#010101}</style><style>.cls-1{fill:#1da1f2}</style><style>.cls-1{fill:#fff}</style></defs><symbol id="icon-carousel-left" viewBox="0 0 16 16"><title>Icon_</title><path class="cls-1" d="M6 8l5.1-5.15a.5.5 0 0 0-.71-.71L4.9 7.65a.5.5 0 0 0 0 .71l5.5 5.5a.5.5 0 0 0 .71-.71z"/></symbol><symbol id="icon-carousel-right" viewBox="0 0 16 16"><title>Icon_</title><path class="cls-1" d="M4.9 13.15a.5.5 0 1 0 .71.71l5.5-5.5a.5.5 0 0 0 0-.71L5.6 2.15a.5.5 0 1 0-.71.71L10 8z"/></symbol><symbol id="icon-cross" viewBox="0 0 32 32"><path d="M26.96 1.504L16 12.464 5.04 1.504 1.504 5.04 12.464 16 1.504 26.96l3.536 3.536L16 19.536l10.96 10.96 3.536-3.536L19.536 16l10.96-10.96-3.536-3.536z" fill-rule="nonzero"/></symbol><symbol id="icon-facebook" viewBox="0 0 266.89 266.89"><title>icon-fb</title><path class="cls-1" d="M252.16 0H14.73A14.73 14.73 0 0 0 0 14.73v237.43a14.73 14.73 0 0 0 14.73 14.73h127.83V163.54h-34.78v-40.28h34.78V93.55c0-34.47 21.05-53.24 51.81-53.24a285.36 285.36 0 0 1 31.08 1.59v36h-21.33c-16.72 0-20 7.95-20 19.61v25.72H224l-5.19 40.28h-34.66v103.38h68a14.73 14.73 0 0 0 14.73-14.73V14.73A14.73 14.73 0 0 0 252.16 0z"/></symbol><symbol id="icon-instagram" viewBox="0 0 512 512"><title>icon-insta</title><path d="M256 49.47c67.27 0 75.23.26 101.8 1.47 24.56 1.12 37.9 5.22 46.78 8.67a78.05 78.05 0 0 1 29 18.84 78.05 78.05 0 0 1 18.84 29c3.45 8.88 7.55 22.22 8.67 46.78 1.21 26.56 1.47 34.53 1.47 101.8s-.26 75.23-1.47 101.8c-1.12 24.56-5.22 37.9-8.67 46.78a83.43 83.43 0 0 1-47.81 47.81c-8.88 3.45-22.22 7.55-46.78 8.67-26.56 1.21-34.53 1.47-101.8 1.47s-75.24-.26-101.8-1.47c-24.56-1.12-37.9-5.22-46.78-8.67a78.05 78.05 0 0 1-29-18.84 78.05 78.05 0 0 1-18.84-29c-3.45-8.88-7.55-22.22-8.67-46.78-1.21-26.56-1.47-34.53-1.47-101.8s.26-75.23 1.47-101.8c1.12-24.56 5.22-37.9 8.67-46.78a78.05 78.05 0 0 1 18.84-29 78.05 78.05 0 0 1 29-18.84c8.88-3.45 22.22-7.55 46.78-8.67 26.56-1.21 34.53-1.47 101.8-1.47m0-45.39c-68.42 0-77 .29-103.87 1.52S107 11.08 91 17.3a123.49 123.49 0 0 0-44.64 29.06A123.49 123.49 0 0 0 17.3 91c-6.22 16-10.48 34.32-11.7 61.13S4.08 187.58 4.08 256s.29 77 1.52 103.87S11.08 405 17.3 421a123.49 123.49 0 0 0 29.06 44.62A123.49 123.49 0 0 0 91 494.69c16 6.23 34.34 10.49 61.15 11.71s35.45 1.52 103.87 1.52 77-.29 103.87-1.52S405 500.92 421 494.69A128.82 128.82 0 0 0 494.69 421c6.23-16 10.49-34.34 11.71-61.15s1.52-35.45 1.52-103.87-.29-77-1.52-103.87S500.92 107 494.69 91a123.49 123.49 0 0 0-29.06-44.62A123.49 123.49 0 0 0 421 17.3c-16-6.22-34.32-10.48-61.13-11.7S324.42 4.08 256 4.08z"/><path d="M256 126.64A129.36 129.36 0 1 0 385.36 256 129.36 129.36 0 0 0 256 126.64zM256 340a84 84 0 1 1 84-84 84 84 0 0 1-84 84z"/><circle cx="390.48" cy="121.52" r="30.23"/></symbol><symbol id="icon-medium" viewBox="0 0 20 20"><title>icon-medium</title><path d="M20 20H0V0h20v20zm-3.358-4.707v-.225l-1.04-1.02a.312.312 0 0 1-.118-.299V6.251a.312.312 0 0 1 .118-.3l1.065-1.02v-.224h-3.685l-2.627 6.553-2.988-6.553H3.502v.225L4.747 6.43c.121.11.184.272.167.436v5.893a.678.678 0 0 1-.18.585l-1.4 1.698v.225h3.971v-.225l-1.4-1.698a.706.706 0 0 1-.194-.585V7.663l3.486 7.604h.405l2.994-7.604v6.061c0 .162 0 .194-.106.3l-1.077 1.044v.225h5.229z" fill="#000" fill-rule="evenodd"/></symbol><symbol id="icon-twitter" viewBox="0 0 250 203.14"><title>icon-tw</title><path class="cls-1" d="M78.62 203.14C173 203.14 224.56 125 224.56 57.2c0-2.22 0-4.43-.15-6.63A104.36 104.36 0 0 0 250 24a102.38 102.38 0 0 1-29.46 8.07 51.47 51.47 0 0 0 22.55-28.35 102.79 102.79 0 0 1-32.57 12.45 51.34 51.34 0 0 0-87.41 46.78A145.62 145.62 0 0 1 17.4 9.36a51.33 51.33 0 0 0 15.88 68.47A50.91 50.91 0 0 1 10 71.41v.65a51.31 51.31 0 0 0 41.15 50.28 51.21 51.21 0 0 1-23.16.88 51.35 51.35 0 0 0 47.92 35.62 102.92 102.92 0 0 1-63.7 22A104.41 104.41 0 0 1 0 180.1a145.21 145.21 0 0 0 78.62 23"/></symbol><symbol id="icon-youtube" viewBox="0 0 176 124"><title>icon-yt</title><path class="cls-1" d="M172.32 19.36A22.11 22.11 0 0 0 156.76 3.7C143 0 88 0 88 0S33 0 19.24 3.7A22.11 22.11 0 0 0 3.68 19.36C0 33.18 0 62 0 62s0 28.82 3.68 42.64a22.11 22.11 0 0 0 15.56 15.66C33 124 88 124 88 124s55 0 68.76-3.7a22.11 22.11 0 0 0 15.56-15.66C176 90.82 176 62 176 62s0-28.82-3.68-42.64zM70 88.17V35.83L116 62z"/></symbol></svg>