<svg width="20" height="20" viewBox="0 0 20 20" xmlns="http://www.w3.org/2000/svg"><title>icon-medium</title><path d="M20 20H0V0h20v20zm-3.358-4.707v-.225l-1.04-1.02a.312.312 0 0 1-.118-.299V6.251a.312.312 0 0 1 .118-.3l1.065-1.02v-.224h-3.685l-2.627 6.553-2.988-6.553H3.502v.225L4.747 6.43c.121.11.184.272.167.436v5.893a.678.678 0 0 1-.18.585l-1.4 1.698v.225h3.971v-.225l-1.4-1.698a.706.706 0 0 1-.194-.585V7.663l3.486 7.604h.405l2.994-7.604v6.061c0 .162 0 .194-.106.3l-1.077 1.044v.225h5.229z" fill="#000" fill-rule="evenodd"/></svg>