<?xml version="1.0" encoding="UTF-8"?>
<svg width="38px" height="48px" viewBox="0 0 38 48" version="1.1" xmlns="http://www.w3.org/2000/svg" xmlns:xlink="http://www.w3.org/1999/xlink">
    <!-- Generator: Sketch 52.5 (67469) - http://www.bohemiancoding.com/sketch -->
    <title>pdf-ko</title>
    <desc>Created with Sketch.</desc>
    <g id="pdf-ko" stroke="none" stroke-width="1" fill="none" fill-rule="evenodd">
        <g id="Group-Copy" transform="translate(1.000000, 1.000000)" fill="#000000">
            <g id="Group-2" fill-rule="nonzero">
                <g id="icons8-pdf-copy">
                    <path d="M0,0 L0,46 L36,46 L36,13.410156 L22.183594,0 L0,0 Z M2,2 L21,2 L21,15 L34,15 L34,44 L2,44 L2,2 Z M23,3.578125 L32.707031,13 L23,13 L23,3.578125 Z M16.769531,12.875 C16.019531,12.875 15.242188,13.300781 14.902344,13.933594 C14.558594,14.5625 14.535156,15.238281 14.621094,15.941406 C14.753906,17.050781 15.257813,18.304688 15.910156,19.589844 C15.585938,20.683594 15.429688,21.636719 14.941406,22.804688 C14.320313,24.292969 13.558594,25.472656 12.828125,26.710938 C11.875,27.15625 10.671875,27.554688 9.96875,28.015625 C9.179688,28.535156 8.554688,29 8.1875,29.738281 C8.007813,30.105469 7.914063,30.628906 8.09375,31.101563 C8.273438,31.574219 8.648438,31.882813 9.035156,32.082031 C9.855469,32.515625 10.800781,32.246094 11.484375,31.785156 C12.167969,31.324219 12.777344,30.648438 13.390625,29.824219 C13.699219,29.40625 13.945313,28.730469 14.25,28.242188 C15.230469,27.808594 15.925781,27.359375 17.039063,26.976563 C18.542969,26.457031 19.882813,26.238281 21.289063,25.933594 C22.464844,26.726563 23.714844,27.34375 25.082031,27.34375 C25.855469,27.34375 26.453125,27.308594 27.035156,26.992188 C27.621094,26.675781 27.972656,25.914063 27.972656,25.332031 C27.972656,24.859375 27.765625,24.355469 27.4375,24.03125 C27.105469,23.707031 26.714844,23.535156 26.3125,23.425781 C25.515625,23.210938 24.609375,23.226563 23.566406,23.332031 C23.015625,23.390625 22.277344,23.683594 21.664063,23.796875 C21.582031,23.734375 21.503906,23.707031 21.421875,23.636719 C20.175781,22.5625 19.007813,21.078125 18.140625,19.601563 C18.089844,19.511719 18.097656,19.449219 18.046875,19.359375 C18.257813,18.570313 18.671875,17.652344 18.765625,16.960938 C18.894531,16.003906 18.921875,15.167969 18.691406,14.402344 C18.574219,14.019531 18.378906,13.632813 18.039063,13.335938 C17.699219,13.039063 17.21875,12.875 16.769531,12.875 Z M16.6875,14.867188 C16.699219,14.867188 16.71875,14.875 16.734375,14.878906 C16.738281,14.886719 16.746094,14.882813 16.777344,14.980469 C16.832031,15.164063 16.800781,15.683594 16.78125,16.144531 C16.757813,16.027344 16.621094,15.808594 16.609375,15.703125 C16.550781,15.238281 16.625,14.941406 16.65625,14.890625 C16.664063,14.871094 16.675781,14.867188 16.6875,14.867188 Z M17.292969,21.882813 C17.910156,22.769531 18.59375,23.597656 19.359375,24.359375 C18.335938,24.632813 17.417969,24.730469 16.386719,25.085938 C16.167969,25.160156 16.042969,25.265625 15.828125,25.34375 C16.132813,24.707031 16.511719,24.234375 16.785156,23.578125 C17.035156,22.980469 17.078125,22.476563 17.292969,21.882813 Z" id="Shape"></path>
                </g>
            </g>
            <path d="M12.847,41 L12.847,33.828 L14.464,33.828 L14.464,36.765 L14.508,36.765 L16.642,33.828 L18.424,33.828 L16.257,36.688 L18.82,41 L17.049,41 L15.3,37.975 L14.464,39.075 L14.464,41 L12.847,41 Z M22.009,41.132 C21.5249976,41.132 21.0831687,41.0458342 20.6835,40.8735 C20.2838313,40.7011658 19.9410014,40.4536683 19.655,40.131 C19.3689986,39.8083317 19.1471675,39.4160023 18.9895,38.954 C18.8318326,38.4919977 18.753,37.9676696 18.753,37.381 C18.753,36.7943304 18.8318326,36.2718356 18.9895,35.8135 C19.1471675,35.3551644 19.3689986,34.9701682 19.655,34.6585 C19.9410014,34.3468318 20.2838313,34.1085008 20.6835,33.9435 C21.0831687,33.7784992 21.5249976,33.696 22.009,33.696 C22.4930024,33.696 22.9348313,33.7784992 23.3345,33.9435 C23.7341687,34.1085008 24.0769986,34.3486651 24.363,34.664 C24.6490014,34.9793349 24.8708326,35.3661644 25.0285,35.8245 C25.1861675,36.2828356 25.265,36.8016638 25.265,37.381 C25.265,37.9676696 25.1861675,38.4919977 25.0285,38.954 C24.8708326,39.4160023 24.6490014,39.8083317 24.363,40.131 C24.0769986,40.4536683 23.7341687,40.7011658 23.3345,40.8735 C22.9348313,41.0458342 22.4930024,41.132 22.009,41.132 Z M22.009,39.735 C22.5003358,39.735 22.8889986,39.5241688 23.175,39.1025 C23.4610014,38.6808312 23.604,38.1070036 23.604,37.381 C23.604,36.6623297 23.4610014,36.1013353 23.175,35.698 C22.8889986,35.2946647 22.5003358,35.093 22.009,35.093 C21.5176642,35.093 21.1290014,35.2946647 20.843,35.698 C20.5569986,36.1013353 20.414,36.6623297 20.414,37.381 C20.414,38.1070036 20.5569986,38.6808312 20.843,39.1025 C21.1290014,39.5241688 21.5176642,39.735 22.009,39.735 Z" id="KO"></path>
        </g>
    </g>
</svg>